<svg width="40" height="40" viewBox="0 0 40 40" fill="none" xmlns="http://www.w3.org/2000/svg">
<g id="Xnix/Line/Recyle">
<g id="Vector">
<path id="Vector-49" d="M17.2915 33.1659C18.1199 33.1659 18.7915 32.4943 18.7915 31.6659C18.7915 30.8374 18.1199 30.1659 17.2915 30.1659V33.1659ZM11.8198 31.6659L11.6572 33.157C11.7112 33.1629 11.7655 33.1659 11.8198 33.1659V31.6659ZM8.7861 29.5272L10.1359 28.8729L10.1359 28.8729L8.7861 29.5272ZM8.9865 25.8209L7.74211 24.9833C7.73289 24.997 7.7239 25.0108 7.71515 25.0248L8.9865 25.8209ZM12.3376 23.5284C12.8001 22.8411 12.618 21.909 11.9307 21.4465C11.2435 20.9839 10.3113 21.166 9.84878 21.8533L12.3376 23.5284ZM13.3963 14.153C12.929 14.837 13.1046 15.7704 13.7886 16.2377C14.4726 16.7051 15.406 16.5294 15.8734 15.8454L13.3963 14.153ZM17.9998 10.0742L19.2384 10.9204C19.2745 10.8675 19.3072 10.8123 19.3364 10.7552L17.9998 10.0742ZM23.6815 10.0742L22.345 10.7552C22.3736 10.8114 22.4058 10.8657 22.4412 10.9178L23.6815 10.0742ZM25.7912 15.8428C26.2572 16.5278 27.1902 16.7054 27.8751 16.2395C28.5601 15.7735 28.7377 14.8405 28.2718 14.1556L25.7912 15.8428ZM12.5496 22.3318C12.3513 21.5275 11.5385 21.0362 10.7341 21.2345C9.92979 21.4327 9.43849 22.2455 9.63677 23.0499L12.5496 22.3318ZM10.5218 26.6399C10.7201 27.4442 11.5329 27.9355 12.3372 27.7373C13.1415 27.539 13.6329 26.7262 13.4346 25.9218L10.5218 26.6399ZM11.6568 24.0809C12.4245 23.7696 12.7945 22.8949 12.4832 22.1272C12.1719 21.3595 11.2972 20.9895 10.5295 21.3008L11.6568 24.0809ZM6.10284 23.0958C5.33513 23.4071 4.96513 24.2818 5.27644 25.0495C5.58774 25.8172 6.46246 26.1872 7.23017 25.8759L6.10284 23.0958ZM24.3748 30.1659C23.5464 30.1659 22.8748 30.8374 22.8748 31.6659C22.8748 32.4943 23.5464 33.1659 24.3748 33.1659V30.1659ZM29.8465 31.6659V33.1659C29.9008 33.1659 29.9551 33.1629 30.0092 33.157L29.8465 31.6659ZM32.8802 29.5272L31.5305 28.8729V28.8729L32.8802 29.5272ZM32.6798 25.8209L33.9512 25.0248C33.9424 25.0108 33.9334 24.997 33.9242 24.9833L32.6798 25.8209ZM31.8176 21.8533C31.355 21.166 30.4229 20.9839 29.7356 21.4465C29.0484 21.909 28.8662 22.8411 29.3288 23.5284L31.8176 21.8533ZM25.59 14.5845C25.3609 15.3807 25.8207 16.2117 26.6168 16.4407C27.413 16.6697 28.244 16.21 28.4731 15.4138L25.59 14.5845ZM29.358 12.3372C29.5871 11.541 29.1273 10.71 28.3312 10.481C27.535 10.252 26.704 10.7117 26.475 11.5079L29.358 12.3372ZM26.5211 16.4097C27.3001 16.6916 28.1601 16.2886 28.442 15.5096C28.7239 14.7306 28.3209 13.8706 27.5419 13.5887L26.5211 16.4097ZM24.0003 12.307C23.2213 12.0251 22.3613 12.4281 22.0794 13.2071C21.7975 13.9861 22.2004 14.8461 22.9794 15.128L24.0003 12.307ZM32.0296 23.0516C32.2279 22.2472 31.7365 21.4344 30.9322 21.2361C30.1278 21.0378 29.3151 21.5291 29.1168 22.3335L32.0296 23.0516ZM28.2318 25.9235C28.0335 26.7278 28.5248 27.5406 29.3291 27.7389C30.1335 27.9372 30.9463 27.4459 31.1446 26.6416L28.2318 25.9235ZM31.1364 21.3023C30.3686 20.9912 29.494 21.3615 29.1829 22.1293C28.8719 22.8971 29.2421 23.7717 30.01 24.0828L31.1364 21.3023ZM34.4366 25.8761C35.2044 26.1872 36.079 25.8169 36.3901 25.0491C36.7011 24.2813 36.3309 23.4067 35.5631 23.0956L34.4366 25.8761ZM17.2915 30.1659H11.8198V33.1659H17.2915V30.1659ZM11.9825 30.1747C11.1839 30.0876 10.4863 29.5958 10.1359 28.8729L7.43633 30.1815C8.23726 31.8338 9.83183 32.9579 11.6572 33.157L11.9825 30.1747ZM10.1359 28.8729C9.78547 28.15 9.83155 27.2978 10.2579 26.6169L7.71515 25.0248C6.74072 26.5811 6.63539 28.5292 7.43633 30.1815L10.1359 28.8729ZM10.2309 26.6584L12.3376 23.5284L9.84878 21.8533L7.74211 24.9833L10.2309 26.6584ZM15.8734 15.8454L19.2384 10.9204L16.7613 9.22797L13.3963 14.153L15.8734 15.8454ZM19.3364 10.7552C19.6246 10.1895 20.2058 9.83331 20.8407 9.83331V6.83331C19.0777 6.83331 17.4637 7.82236 16.6633 9.39321L19.3364 10.7552ZM20.8407 9.83331C21.4756 9.83331 22.0568 10.1895 22.345 10.7552L25.018 9.39321C24.2176 7.82236 22.6037 6.83331 20.8407 6.83331V9.83331ZM22.4412 10.9178L25.7912 15.8428L28.2718 14.1556L24.9218 9.23055L22.4412 10.9178ZM9.63677 23.0499L10.5218 26.6399L13.4346 25.9218L12.5496 22.3318L9.63677 23.0499ZM10.5295 21.3008L6.10284 23.0958L7.23017 25.8759L11.6568 24.0809L10.5295 21.3008ZM24.3748 33.1659H29.8465V30.1659H24.3748V33.1659ZM30.0092 33.157C31.8345 32.9579 33.4291 31.8338 34.23 30.1815L31.5305 28.8729C31.1801 29.5958 30.4824 30.0876 29.6838 30.1747L30.0092 33.157ZM34.23 30.1815C35.031 28.5292 34.9256 26.5811 33.9512 25.0248L31.4085 26.6169C31.8348 27.2978 31.8809 28.15 31.5305 28.8729L34.23 30.1815ZM33.9242 24.9833L31.8176 21.8533L29.3288 23.5284L31.4354 26.6584L33.9242 24.9833ZM28.4731 15.4138L29.358 12.3372L26.475 11.5079L25.59 14.5845L28.4731 15.4138ZM27.5419 13.5887L24.0003 12.307L22.9794 15.128L26.5211 16.4097L27.5419 13.5887ZM29.1168 22.3335L28.2318 25.9235L31.1446 26.6416L32.0296 23.0516L29.1168 22.3335ZM30.01 24.0828L34.4366 25.8761L35.5631 23.0956L31.1364 21.3023L30.01 24.0828Z" fill="#42C9FF"/>
</g>
</g>
</svg>
