<svg width="40" height="40" viewBox="0 0 40 40" fill="none" xmlns="http://www.w3.org/2000/svg">
<g id="Xnix/Line/Id_Card">
<g id="Vector">
<path id="Vector-37" fill-rule="evenodd" clip-rule="evenodd" d="M5 11.6667V28.3333C5 30.1743 6.49238 31.6667 8.33333 31.6667H31.6667C33.5076 31.6667 35 30.1743 35 28.3333V11.6667C35 9.82573 33.5076 8.33334 31.6667 8.33334H8.33333C6.49238 8.33334 5 9.82573 5 11.6667Z" stroke="#42C9FF" stroke-width="3" stroke-linecap="round" stroke-linejoin="round"/>
<path id="Vector_671" d="M25 16.6667H30" stroke="#42C9FF" stroke-width="3" stroke-linecap="round"/>
<path id="Vector_675" d="M25 21.6667H30" stroke="#42C9FF" stroke-width="3" stroke-linecap="round"/>
<path id="Vector-40" fill-rule="evenodd" clip-rule="evenodd" d="M18.3332 16.6667C18.3332 18.5076 16.8408 20 14.9998 20C13.1589 20 11.6665 18.5076 11.6665 16.6667C11.6665 14.8257 13.1589 13.3333 14.9998 13.3333C15.8839 13.3333 16.7317 13.6845 17.3569 14.3097C17.982 14.9348 18.3332 15.7826 18.3332 16.6667Z" stroke="#42C9FF" stroke-width="3" stroke-linecap="round" stroke-linejoin="round"/>
<path id="Vector_676" d="M8.33317 26.6667C12.9715 21.4383 18.4198 23.0817 21.6665 26.6667" stroke="#42C9FF" stroke-width="3" stroke-linecap="round"/>
</g>
</g>
</svg>
