<svg width="40" height="40" viewBox="0 0 40 40" fill="none" xmlns="http://www.w3.org/2000/svg">
<g id="Xnix/Line/Seeding">
<g id="Xnix_Line_">
<path id="Rectangle_1687" fill-rule="evenodd" clip-rule="evenodd" d="M8.3335 12.3763C8.50554 14.8009 9.34735 17.1302 10.7652 19.1046C11.2274 19.6904 11.7818 20.197 12.4068 20.6046C13.0448 20.9688 13.7395 21.2229 14.4618 21.3563C16.7765 21.6644 19.1303 21.2647 21.2135 20.2096C21.0432 17.7828 20.2019 15.4511 18.7835 13.4746C18.3213 12.8888 17.7668 12.3822 17.1418 11.9746C16.5036 11.6122 15.8089 11.3598 15.0868 11.2279C12.7714 10.9199 10.417 11.3203 8.3335 12.3763Z" stroke="#42C9FF" stroke-width="3" stroke-linecap="round" stroke-linejoin="round"/>
<path id="Rectangle_1687-2" d="M22.7153 8.12634C22.7153 7.29792 22.0438 6.62634 21.2153 6.62634C20.3869 6.62634 19.7153 7.29792 19.7153 8.12634H22.7153ZM19.7153 14.9263C19.7153 15.7548 20.3869 16.4263 21.2153 16.4263C22.0438 16.4263 22.7153 15.7548 22.7153 14.9263H19.7153ZM19.7153 33.3563C19.7153 34.1848 20.3869 34.8563 21.2153 34.8563C22.0438 34.8563 22.7153 34.1848 22.7153 33.3563H19.7153ZM22.7153 14.9263C22.7153 14.0979 22.0438 13.4263 21.2153 13.4263C20.3869 13.4263 19.7153 14.0979 19.7153 14.9263H22.7153ZM21.4025 16.2831C20.5806 16.1797 19.8304 16.7622 19.7271 17.5842C19.6237 18.4061 20.2062 19.1562 21.0281 19.2596L21.4025 16.2831ZM27.6003 16.6897L28.2673 18.0333C28.2832 18.0253 28.2991 18.0171 28.3148 18.0086L27.6003 16.6897ZM29.347 15.3797L30.4131 16.4348C30.4312 16.4165 30.4489 16.3978 30.466 16.3786L29.347 15.3797ZM30.582 13.523L31.9358 14.169C31.9427 14.1545 31.9494 14.1399 31.9558 14.1252L30.582 13.523ZM31.607 6.75301L33.0975 6.5845C33.0197 5.89597 32.4803 5.35037 31.7928 5.26456L31.607 6.75301ZM25.222 7.84134L24.5536 6.49848C24.5381 6.50619 24.5228 6.51417 24.5076 6.52242L25.222 7.84134ZM23.4753 9.15134L22.4092 8.09618C22.3914 8.11413 22.3741 8.13254 22.3573 8.15137L23.4753 9.15134ZM22.2403 11.003L20.8875 10.355C20.8851 10.36 20.8828 10.365 20.8805 10.37L22.2403 11.003ZM19.7212 14.8145C19.6594 15.6407 20.2791 16.3604 21.1052 16.4222C21.9313 16.4839 22.6511 15.8643 22.7128 15.0381L19.7212 14.8145ZM19.7153 8.12634V14.9263H22.7153V8.12634H19.7153ZM22.7153 33.3563V14.9263H19.7153V33.3563H22.7153ZM21.0281 19.2596C23.5093 19.5717 26.0273 19.1451 28.2673 18.0333L26.9334 15.3461C25.2221 16.1956 23.2982 16.5215 21.4025 16.2831L21.0281 19.2596ZM28.3148 18.0086C29.0877 17.5899 29.7948 17.0596 30.4131 16.4348L28.2809 14.3245C27.8698 14.7399 27.3997 15.0924 26.8859 15.3707L28.3148 18.0086ZM30.466 16.3786C31.0581 15.7153 31.5529 14.9714 31.9358 14.169L29.2282 12.877C28.9677 13.4231 28.6309 13.9294 28.228 14.3808L30.466 16.3786ZM31.9558 14.1252C32.9942 11.7561 33.3881 9.15475 33.0975 6.5845L30.1165 6.92152C30.3477 8.96639 30.0343 11.036 29.2082 12.9208L31.9558 14.1252ZM31.7928 5.26456C29.3109 4.95482 26.7928 5.38404 24.5536 6.49848L25.8904 9.18421C27.6011 8.33275 29.525 8.00482 31.4212 8.24146L31.7928 5.26456ZM24.5076 6.52242C23.7346 6.94111 23.0276 7.47139 22.4092 8.09618L24.5415 10.2065C24.9526 9.79115 25.4226 9.43862 25.9364 9.16027L24.5076 6.52242ZM22.3573 8.15137C21.7657 8.81279 21.2709 9.55471 20.8875 10.355L23.5931 11.651C23.854 11.1064 24.1908 10.6015 24.5934 10.1513L22.3573 8.15137ZM20.8805 10.37C20.229 11.7694 19.8362 13.2752 19.7212 14.8145L22.7128 15.0381C22.8009 13.8599 23.1015 12.7073 23.6002 11.6361L20.8805 10.37Z" fill="#42C9FF"/>
</g>
</g>
</svg>
