<svg width="40" height="40" viewBox="0 0 40 40" fill="none" xmlns="http://www.w3.org/2000/svg">
<g id="Xnix/Line/Heart 2">
<g id="Vector">
<path id="vetor" d="M18.9172 32.7167C19.4905 33.3147 20.4401 33.3347 21.0381 32.7614C21.6361 32.1881 21.6561 31.2385 21.0828 30.6406L18.9172 32.7167ZM10.59 21.8636L9.49857 22.8927L9.50723 22.9017L10.59 21.8636ZM10.59 10.4986L9.53077 9.43654C9.51988 9.4474 9.50916 9.45842 9.49861 9.46961L10.59 10.4986ZM19.1561 10.8587C19.8409 11.3248 20.774 11.1474 21.2401 10.4626C21.7062 9.77769 21.5288 8.84465 20.8439 8.37856L19.1561 10.8587ZM18.9172 30.6406C18.3439 31.2386 18.3639 32.1882 18.962 32.7615C19.56 33.3347 20.5095 33.3147 21.0828 32.7167L18.9172 30.6406ZM26.5311 27.0333C27.1044 26.4353 27.0844 25.4858 26.4864 24.9125C25.8883 24.3392 24.9388 24.3592 24.3655 24.9573L26.5311 27.0333ZM18.9172 30.6406C18.3439 31.2385 18.3639 32.1881 18.9619 32.7614C19.5599 33.3347 20.5094 33.3147 21.0828 32.7167L18.9172 30.6406ZM29.41 21.8636L30.4928 22.9018L30.5014 22.8927L29.41 21.8636ZM29.41 10.4986L30.5014 9.46961C30.4908 9.45843 30.4801 9.4474 30.4692 9.43654L29.41 10.4986ZM19.1561 8.37856C18.4712 8.84465 18.2938 9.77769 18.7599 10.4626C19.226 11.1474 20.159 11.3248 20.8439 10.8587L19.1561 8.37856ZM18.9172 32.7167C19.4905 33.3147 20.44 33.3347 21.038 32.7615C21.636 32.1882 21.6561 31.2386 21.0828 30.6406L18.9172 32.7167ZM15.6345 24.9573C15.0612 24.3592 14.1116 24.3392 13.5136 24.9125C12.9156 25.4858 12.8956 26.4353 13.4688 27.0333L15.6345 24.9573ZM20.797 8.34792C20.0952 7.90773 19.1695 8.1198 18.7293 8.82159C18.2891 9.52339 18.5011 10.4492 19.2029 10.8894L20.797 8.34792ZM21.4867 10.8303L20.4029 11.8673L20.4035 11.868L21.4867 10.8303ZM22.3835 13.9347C22.9566 14.5329 23.9062 14.5532 24.5044 13.9801C25.1026 13.407 25.1229 12.4575 24.5498 11.8593L22.3835 13.9347ZM21.0828 30.6406L11.6728 20.8256L9.50723 22.9017L18.9172 32.7167L21.0828 30.6406ZM11.6814 20.8346C9.21754 18.2215 9.21754 14.1408 11.6814 11.5277L9.49861 9.46961C5.94512 13.2384 5.94513 19.1238 9.49861 22.8927L11.6814 20.8346ZM11.6492 11.5607C13.6591 9.55628 16.8094 9.26167 19.1561 10.8587L20.8439 8.37856C17.3073 5.97175 12.5598 6.41573 9.53077 9.43654L11.6492 11.5607ZM21.0828 32.7167L26.5311 27.0333L24.3655 24.9573L18.9172 30.6406L21.0828 32.7167ZM21.0828 32.7167L30.4928 22.9017L28.3272 20.8256L18.9172 30.6406L21.0828 32.7167ZM30.5014 22.8927C34.0549 19.1238 34.0549 13.2384 30.5014 9.46961L28.3186 11.5277C30.7824 14.1408 30.7824 18.2215 28.3186 20.8346L30.5014 22.8927ZM30.4692 9.43654C27.4402 6.41573 22.6927 5.97175 19.1561 8.37856L20.8439 10.8587C23.1906 9.26167 26.3409 9.55628 28.3508 11.5607L30.4692 9.43654ZM21.0828 30.6406L15.6345 24.9573L13.4688 27.0333L18.9172 32.7167L21.0828 30.6406ZM19.2029 10.8894C19.6417 11.1646 20.0448 11.4931 20.4029 11.8673L22.5705 9.7933C22.0412 9.24018 21.4455 8.7547 20.797 8.34792L19.2029 10.8894ZM20.4035 11.868L22.3835 13.9347L24.5498 11.8593L22.5698 9.7926L20.4035 11.868Z" fill="#42C9FF"/>
</g>
</g>
</svg>
