<svg width="40" height="40" viewBox="0 0 40 40" fill="none" xmlns="http://www.w3.org/2000/svg">
<g id="Xnix/Line/Users_2">
<g id="Vector">
<path id="Vector-23" fill-rule="evenodd" clip-rule="evenodd" d="M24.0395 12.135C24.0377 14.2323 22.3363 15.9312 20.239 15.93C18.1417 15.9288 16.4423 14.2279 16.4429 12.1305C16.4435 10.0332 18.1439 8.33331 20.2412 8.33331C21.249 8.33375 22.2154 8.73453 22.9277 9.44749C23.64 10.1604 24.04 11.1272 24.0395 12.135Z" stroke="#42C9FF" stroke-width="3" stroke-linecap="round" stroke-linejoin="round"/>
<path id="Vector-24" fill-rule="evenodd" clip-rule="evenodd" d="M24.1611 21.5317H16.3278C13.591 21.6177 11.417 23.8611 11.417 26.5992C11.417 29.3373 13.591 31.5807 16.3278 31.6667H24.1611C26.8979 31.5807 29.0719 29.3373 29.0719 26.5992C29.0719 23.8611 26.8979 21.6177 24.1611 21.5317V21.5317Z" stroke="#42C9FF" stroke-width="3" stroke-linecap="round" stroke-linejoin="round"/>
<path id="Vector-25" fill-rule="evenodd" clip-rule="evenodd" d="M33.6464 15.04C33.6455 16.6442 32.3445 17.944 30.7403 17.9434C29.1361 17.9427 27.8361 16.642 27.8364 15.0378C27.8367 13.4336 29.1373 12.1334 30.7414 12.1334C31.5122 12.1334 32.2513 12.4397 32.7962 12.9848C33.341 13.53 33.6469 14.2693 33.6464 15.04V15.04Z" stroke="#42C9FF" stroke-width="3" stroke-linecap="round" stroke-linejoin="round"/>
<path id="Vector-26" fill-rule="evenodd" clip-rule="evenodd" d="M6.38965 15.04C6.38965 16.6444 7.69026 17.945 9.29465 17.945C10.899 17.945 12.1996 16.6444 12.1996 15.04C12.1996 13.4356 10.899 12.135 9.29465 12.135C7.69026 12.135 6.38965 13.4356 6.38965 15.04V15.04Z" stroke="#42C9FF" stroke-width="3" stroke-linecap="round" stroke-linejoin="round"/>
<path id="Vector-27" d="M31.5613 21.1483C30.7329 21.1483 30.0613 21.8199 30.0613 22.6483C30.0613 23.4767 30.7329 24.1483 31.5613 24.1483V21.1483ZM33.7396 22.6483L33.7707 21.1486C33.7604 21.1484 33.75 21.1483 33.7396 21.1483V22.6483ZM33.7396 30.4V31.9C33.75 31.9 33.7604 31.8999 33.7707 31.8997L33.7396 30.4ZM31.5613 28.9C30.7329 28.9 30.0613 29.5716 30.0613 30.4C30.0613 31.2284 30.7329 31.9 31.5613 31.9V28.9ZM8.47462 24.1483C9.30305 24.1483 9.97462 23.4767 9.97462 22.6483C9.97462 21.8199 9.30305 21.1483 8.47462 21.1483V24.1483ZM6.29629 22.6483V21.1483C6.28592 21.1483 6.27556 21.1484 6.26519 21.1486L6.29629 22.6483ZM6.29629 30.4L6.26519 31.8997C6.27556 31.8999 6.28592 31.9 6.29629 31.9V30.4ZM8.47462 31.9C9.30305 31.9 9.97462 31.2284 9.97462 30.4C9.97462 29.5716 9.30305 28.9 8.47462 28.9V31.9ZM31.5613 24.1483H33.7396V21.1483H31.5613V24.1483ZM33.7085 24.148C35.0016 24.1748 36.0359 25.2308 36.0359 26.5241H39.0359C39.0359 23.5981 36.6961 21.2093 33.7707 21.1486L33.7085 24.148ZM36.0359 26.5241C36.0359 27.8175 35.0016 28.8735 33.7085 28.9003L33.7707 31.8997C36.6961 31.839 39.0359 29.4502 39.0359 26.5241H36.0359ZM33.7396 28.9H31.5613V31.9H33.7396V28.9ZM8.47462 21.1483H6.29629V24.1483H8.47462V21.1483ZM6.26519 21.1486C3.33981 21.2093 1 23.5981 1 26.5241H4C4 25.2308 5.03428 24.1748 6.32739 24.148L6.26519 21.1486ZM1 26.5241C1 29.4502 3.33981 31.839 6.26519 31.8997L6.32739 28.9003C5.03428 28.8735 4 27.8175 4 26.5241H1ZM6.29629 31.9H8.47462V28.9H6.29629V31.9Z" fill="#42C9FF"/>
</g>
</g>
</svg>
