<svg width="40" height="40" viewBox="0 0 40 40" fill="none" xmlns="http://www.w3.org/2000/svg">
<g id="Weather / rainy weather">
<path id="Vector" d="M17.5003 13.3333C17.5003 7.51666 12.0003 3.76666 11.767 3.61666C11.4914 3.43036 11.1663 3.33081 10.8337 3.33081C10.501 3.33081 10.1759 3.43036 9.90033 3.61666C9.66699 3.78332 4.16699 7.58332 4.16699 13.3333C4.16699 15.1014 4.86937 16.7971 6.11961 18.0474C7.36986 19.2976 9.06555 20 10.8337 20C12.6018 20 14.2975 19.2976 15.5477 18.0474C16.7979 16.7971 17.5003 15.1014 17.5003 13.3333ZM10.8337 16.6667C9.9496 16.6667 9.10176 16.3155 8.47664 15.6903C7.85151 15.0652 7.50033 14.2174 7.50033 13.3333C7.61455 12.1299 7.96829 10.9614 8.54073 9.89662C9.11318 8.83187 9.89278 7.89235 10.8337 7.13332C11.7781 7.88912 12.5601 8.82785 13.1329 9.89323C13.7057 10.9586 14.0574 12.1287 14.167 13.3333C14.167 14.2174 13.8158 15.0652 13.1907 15.6903C12.5656 16.3155 11.7177 16.6667 10.8337 16.6667ZM30.1003 3.61666C29.8247 3.43036 29.4997 3.33081 29.167 3.33081C28.8343 3.33081 28.5093 3.43036 28.2337 3.61666C28.0003 3.78332 22.5003 7.58332 22.5003 13.3333C22.5003 15.1014 23.2027 16.7971 24.4529 18.0474C25.7032 19.2976 27.3989 20 29.167 20C30.9351 20 32.6308 19.2976 33.881 18.0474C35.1313 16.7971 35.8337 15.1014 35.8337 13.3333C35.8337 7.51666 30.3337 3.76666 30.1003 3.61666ZM29.167 16.6667C28.2829 16.6667 27.4351 16.3155 26.81 15.6903C26.1848 15.0652 25.8337 14.2174 25.8337 13.3333C25.9479 12.1299 26.3016 10.9614 26.8741 9.89662C27.4465 8.83187 28.2261 7.89235 29.167 7.13332C30.1114 7.88912 30.8934 8.82785 31.4662 9.89323C32.039 10.9586 32.3907 12.1287 32.5003 13.3333C32.5003 14.2174 32.1491 15.0652 31.524 15.6903C30.8989 16.3155 30.051 16.6667 29.167 16.6667ZM21.767 20.2833C21.4914 20.097 21.1663 19.9975 20.8337 19.9975C20.501 19.9975 20.1759 20.097 19.9003 20.2833C19.667 20.45 14.167 24.25 14.167 30C14.167 31.7681 14.8694 33.4638 16.1196 34.714C17.3699 35.9643 19.0655 36.6667 20.8337 36.6667C22.6018 36.6667 24.2975 35.9643 25.5477 34.714C26.7979 33.4638 27.5003 31.7681 27.5003 30C27.5003 24.1833 22.0003 20.4333 21.767 20.2833V20.2833ZM20.8337 33.3333C19.9496 33.3333 19.1018 32.9821 18.4766 32.357C17.8515 31.7319 17.5003 30.884 17.5003 30C17.6145 28.7965 17.9683 27.628 18.5407 26.5633C19.1132 25.4985 19.8928 24.559 20.8337 23.8C21.7781 24.5558 22.5601 25.4945 23.1329 26.5599C23.7057 27.6253 24.0574 28.7954 24.167 30C24.167 30.884 23.8158 31.7319 23.1907 32.357C22.5656 32.9821 21.7177 33.3333 20.8337 33.3333Z" fill="#42C9FF"/>
</g>
</svg>
