<svg width="40" height="40" viewBox="0 0 40 40" fill="none" xmlns="http://www.w3.org/2000/svg">
<g id="User Interface / Process">
<path id="Vector" d="M11.6527 24.17C11.4338 24.17 11.217 24.213 11.0148 24.2968C10.8126 24.3805 10.6288 24.5033 10.474 24.6581C10.3193 24.8128 10.1965 24.9966 10.1128 25.1988C10.029 25.4011 9.98596 25.6178 9.98601 25.8367V28.8072C7.83776 26.3777 6.65218 23.2464 6.65268 20.0034C6.65237 19.5132 6.68172 19.0235 6.74056 18.5369C6.76754 18.3193 6.75132 18.0985 6.69282 17.8872C6.63432 17.6759 6.5347 17.4782 6.39966 17.3054C6.26461 17.1327 6.09681 16.9883 5.90586 16.8805C5.71491 16.7727 5.50457 16.7037 5.28689 16.6773C5.06921 16.651 4.84847 16.6679 4.63733 16.727C4.42618 16.7861 4.22878 16.8863 4.05643 17.0219C3.88408 17.1574 3.74018 17.3257 3.63297 17.5169C3.52576 17.7082 3.45734 17.9188 3.43165 18.1365C3.35615 18.7559 3.31865 19.3794 3.31935 20.0034C3.32161 23.9803 4.75094 27.8244 7.34746 30.8367H4.98601C4.54398 30.8367 4.12006 31.0123 3.8075 31.3248C3.49494 31.6374 3.31935 32.0613 3.31935 32.5034C3.31935 32.9454 3.49494 33.3693 3.8075 33.6819C4.12006 33.9944 4.54398 34.17 4.98601 34.17H11.6527C11.9133 34.1668 12.1695 34.1012 12.3997 33.979C12.6299 33.8567 12.8276 33.6812 12.9762 33.467C12.9957 33.4414 13.0205 33.4223 13.0386 33.3953C13.0497 33.3788 13.05 33.3591 13.0603 33.3422C13.1398 33.2081 13.1993 33.063 13.237 32.9117C13.2617 32.8267 13.2792 32.7398 13.2894 32.6519C13.2942 32.6005 13.3194 32.5561 13.3194 32.5034V25.8367C13.3195 25.6178 13.2764 25.4011 13.1927 25.1988C13.1089 24.9966 12.9861 24.8128 12.8314 24.6581C12.6766 24.5033 12.4928 24.3805 12.2906 24.2968C12.0883 24.213 11.8716 24.17 11.6527 24.17ZM14.1527 10.0034H11.1819C13.6116 7.85521 16.7429 6.66965 19.986 6.67002C20.4759 6.66885 20.9654 6.69821 21.4517 6.75792C21.669 6.78432 21.8895 6.76764 22.1004 6.70885C22.3113 6.65005 22.5086 6.55028 22.681 6.41524C22.8534 6.2802 22.9974 6.11253 23.105 5.9218C23.2126 5.73108 23.2815 5.52103 23.3079 5.30366C23.3343 5.08628 23.3177 4.86584 23.2589 4.65491C23.2001 4.44398 23.1003 4.2467 22.9653 4.07433C22.8302 3.90196 22.6625 3.75787 22.4718 3.6503C22.2811 3.54272 22.0711 3.47377 21.8537 3.44737C21.2339 3.37261 20.6102 3.33565 19.986 3.33669C16.0091 3.33885 12.165 4.76808 9.15268 7.36451V5.00336C9.15268 4.56133 8.97708 4.13741 8.66452 3.82485C8.35196 3.51229 7.92804 3.33669 7.48601 3.33669C7.04398 3.33669 6.62006 3.51229 6.3075 3.82485C5.99494 4.13741 5.81935 4.56133 5.81935 5.00336V11.67C5.82983 11.7802 5.85178 11.8889 5.88486 11.9945L5.88526 11.9966C5.92573 12.2017 6.00564 12.3969 6.12055 12.5716L6.13958 12.5997C6.24971 12.7599 6.38773 12.899 6.54708 13.0103C6.5653 13.0236 6.57435 13.0441 6.59326 13.0568C6.61708 13.0726 6.64403 13.0776 6.66835 13.092C6.76287 13.1489 6.86302 13.1958 6.96721 13.232C7.10802 13.281 7.25483 13.3106 7.40361 13.3201C7.4325 13.3216 7.45681 13.3367 7.48601 13.3367H14.1527C14.5947 13.3367 15.0186 13.1611 15.3312 12.8486C15.6438 12.536 15.8193 12.1121 15.8193 11.6701C15.8193 11.228 15.6438 10.8041 15.3312 10.4916C15.0186 10.179 14.5947 10.0034 14.1527 10.0034V10.0034ZM34.0868 28.0102C34.0463 27.805 33.9664 27.6097 33.8514 27.435L33.8325 27.407C33.7223 27.2468 33.5842 27.1076 33.4247 26.9963C33.4065 26.9831 33.3976 26.9625 33.3787 26.9499C33.3607 26.938 33.3394 26.9376 33.3211 26.9264C33.1097 26.8089 32.878 26.7323 32.6382 26.7007C32.5855 26.6957 32.54 26.6699 32.486 26.6699H25.8193C25.3773 26.6699 24.9534 26.8455 24.6408 27.1581C24.3283 27.4707 24.1527 27.8946 24.1527 28.3366C24.1527 28.7786 24.3283 29.2026 24.6408 29.5151C24.9534 29.8277 25.3773 30.0033 25.8193 30.0033H28.79C26.3604 32.1514 23.2291 33.337 19.986 33.3366C19.4961 33.3372 19.0066 33.3074 18.5203 33.2471C18.0813 33.1938 17.6391 33.317 17.291 33.5898C16.9429 33.8625 16.7174 34.2624 16.6641 34.7014C16.6108 35.1404 16.734 35.5826 17.0067 35.9307C17.2795 36.2788 17.6793 36.5043 18.1183 36.5576C18.7381 36.6324 19.3618 36.6699 19.986 36.6699C23.9629 36.6678 27.807 35.2386 30.8193 32.6421V35.0034C30.8193 35.4454 30.9949 35.8693 31.3075 36.1819C31.6201 36.4944 32.044 36.67 32.486 36.67C32.928 36.67 33.352 36.4944 33.6645 36.1819C33.9771 35.8693 34.1527 35.4454 34.1527 35.0034V28.3367C34.1422 28.2265 34.1202 28.1178 34.0872 28.0122L34.0868 28.0102ZM34.986 9.17002C35.428 9.17002 35.852 8.99443 36.1645 8.68187C36.4771 8.36931 36.6527 7.94538 36.6527 7.50336C36.6527 7.06133 36.4771 6.63741 36.1645 6.32485C35.852 6.01229 35.428 5.83669 34.986 5.83669H28.3193C28.2108 5.84715 28.1037 5.86876 27.9996 5.90119L27.9885 5.90342C27.7861 5.94392 27.5934 6.02286 27.4207 6.13597L27.388 6.15804C27.2286 6.268 27.0902 6.4056 26.9792 6.56434C26.9661 6.58234 26.9459 6.59119 26.9334 6.60981C26.9215 6.62771 26.9211 6.64887 26.9099 6.66707C26.791 6.87973 26.7139 7.11318 26.6827 7.35484C26.6779 7.40632 26.6527 7.45067 26.6527 7.50336V14.17C26.6527 14.6121 26.8283 15.036 27.1408 15.3485C27.4534 15.6611 27.8773 15.8367 28.3193 15.8367C28.7614 15.8367 29.1853 15.6611 29.4979 15.3485C29.8104 15.036 29.986 14.6121 29.986 14.17V11.1986C32.1341 13.6285 33.3196 16.76 33.3193 20.0033C33.3197 20.4934 33.2903 20.9832 33.2314 21.4698C33.1786 21.9085 33.302 22.3502 33.5745 22.6981C33.847 23.0459 34.2463 23.2715 34.6849 23.3252C34.7524 23.333 34.8204 23.3368 34.8884 23.3366C35.2953 23.3361 35.688 23.1866 35.9923 22.9165C36.2967 22.6463 36.4916 22.2741 36.5404 21.8701C36.6159 21.2508 36.6534 20.6273 36.6527 20.0034C36.6504 16.0264 35.221 12.1823 32.6243 9.17002H34.986Z" fill="#42C9FF"/>
</g>
</svg>
