<svg width="40" height="40" viewBox="0 0 40 40" fill="none" xmlns="http://www.w3.org/2000/svg">
<g id="Transport / boat">
<path id="Vector" d="M6.03363 28.8C6.19718 29.2111 6.51733 29.5404 6.92366 29.7154C7.32999 29.8905 7.78921 29.8969 8.2003 29.7334C8.61138 29.5698 8.94066 29.2497 9.11569 28.8433C9.29073 28.437 9.29718 27.9778 9.13363 27.5667L7.26696 22.8667L18.3336 20.4167V28.3334C18.3336 28.7754 18.5092 29.1993 18.8218 29.5119C19.1343 29.8244 19.5583 30 20.0003 30C20.4423 30 20.8662 29.8244 21.1788 29.5119C21.4914 29.1993 21.667 28.7754 21.667 28.3334V20.4167L32.7336 22.8667L30.867 27.5667C30.7858 27.7702 30.7455 27.9878 30.7485 28.2069C30.7515 28.426 30.7976 28.6423 30.8843 28.8436C30.971 29.0448 31.0965 29.227 31.2537 29.3797C31.4109 29.5324 31.5966 29.6526 31.8003 29.7334C31.9966 29.811 32.2059 29.8506 32.417 29.85C32.7508 29.8504 33.077 29.7505 33.3533 29.5632C33.6297 29.376 33.8435 29.1102 33.967 28.8L36.5503 22.2834C36.639 22.058 36.6774 21.816 36.6631 21.5742C36.6487 21.3324 36.5817 21.0967 36.467 20.8834C36.3556 20.6709 36.1997 20.4849 36.0098 20.3382C35.82 20.1915 35.6007 20.0875 35.367 20.0334L30.0003 18.85V11.6667C30.0003 11.2247 29.8247 10.8008 29.5121 10.4882C29.1996 10.1756 28.7757 10 28.3336 10H25.0003V5.00004C25.0003 4.55801 24.8247 4.13409 24.5121 3.82153C24.1996 3.50897 23.7757 3.33337 23.3336 3.33337H16.667C16.2249 3.33337 15.801 3.50897 15.4885 3.82153C15.1759 4.13409 15.0003 4.55801 15.0003 5.00004V10H11.667C11.2249 10 10.801 10.1756 10.4885 10.4882C10.1759 10.8008 10.0003 11.2247 10.0003 11.6667V18.85L4.63363 20C4.3999 20.0542 4.18062 20.1582 3.99078 20.3049C3.80093 20.4516 3.645 20.6375 3.53363 20.85C3.41884 21.0633 3.35193 21.2991 3.33754 21.5409C3.32314 21.7826 3.36162 22.0246 3.4503 22.25L6.03363 28.8ZM18.3336 6.66671H21.667V10H18.3336V6.66671ZM13.3336 13.3334H26.667V18.1L20.367 16.6667H20.2003H20.0003H19.8003H19.6336L13.3336 18.1V13.3334ZM34.517 32.1334C33.9322 32.3126 33.3722 32.5645 32.8503 32.8834C32.3194 33.1939 31.7154 33.3575 31.1003 33.3575C30.4852 33.3575 29.8812 33.1939 29.3503 32.8834C28.1957 32.232 26.8926 31.8898 25.567 31.8898C24.2414 31.8898 22.9382 32.232 21.7836 32.8834C21.2454 33.1903 20.6365 33.3517 20.017 33.3517C19.3974 33.3517 18.7885 33.1903 18.2503 32.8834C17.0947 32.2352 15.7919 31.8947 14.467 31.8947C13.142 31.8947 11.8392 32.2352 10.6836 32.8834C10.1527 33.1939 9.54869 33.3575 8.93363 33.3575C8.31856 33.3575 7.71457 33.1939 7.18363 32.8834C6.66169 32.5645 6.10174 32.3126 5.51696 32.1334C5.2952 32.0545 5.05925 32.0235 4.82465 32.0425C4.59005 32.0614 4.36212 32.1298 4.15585 32.2431C3.94959 32.3565 3.76968 32.5123 3.62796 32.7002C3.48624 32.8881 3.38593 33.1039 3.33363 33.3334C3.20921 33.7555 3.25678 34.2097 3.46598 34.5969C3.67518 34.9841 4.02902 35.2728 4.4503 35.4C4.7859 35.491 5.10608 35.6314 5.4003 35.8167C6.41147 36.4101 7.56124 36.7262 8.73363 36.7334C9.9513 36.7336 11.1473 36.4116 12.2003 35.8C12.8536 35.4397 13.5875 35.2507 14.3336 35.2507C15.0797 35.2507 15.8137 35.4397 16.467 35.8C17.5125 36.3979 18.6959 36.7123 19.9003 36.7123C21.1046 36.7123 22.2881 36.3979 23.3336 35.8C23.9869 35.4397 24.7209 35.2507 25.467 35.2507C26.2131 35.2507 26.947 35.4397 27.6003 35.8C28.6333 36.4166 29.8139 36.7421 31.017 36.7421C32.22 36.7421 33.4006 36.4166 34.4336 35.8C34.7278 35.6147 35.048 35.4743 35.3836 35.3834C35.6054 35.3385 35.8158 35.2489 36.0018 35.1201C36.1879 34.9913 36.3458 34.826 36.4658 34.6342C36.5859 34.4424 36.6657 34.2281 36.7003 34.0045C36.7348 33.7808 36.7235 33.5525 36.667 33.3334C36.614 33.1078 36.5146 32.8958 36.3751 32.7108C36.2356 32.5258 36.059 32.372 35.8567 32.259C35.6544 32.1461 35.4308 32.0766 35.2001 32.055C34.9694 32.0334 34.7367 32.0601 34.517 32.1334Z" fill="#42C9FF"/>
</g>
</svg>
